<svg width="20" height="21" viewBox="0 0 20 21" fill="none" xmlns="http://www.w3.org/2000/svg">
<path d="M9.99996 2.16663C5.39759 2.16663 1.66663 5.89759 1.66663 10.5C1.66663 15.1023 5.39759 18.8333 9.99996 18.8333C14.6023 18.8333 18.3333 15.1023 18.3333 10.5C18.3333 5.89759 14.6023 2.16663 9.99996 2.16663Z" fill="#67E4EF"/>
<path fill-rule="evenodd" clip-rule="evenodd" d="M13.0892 8.24408C13.4147 8.56951 13.4147 9.09715 13.0892 9.42259L9.75588 12.7559C9.43044 13.0814 8.90281 13.0814 8.57737 12.7559L6.9107 11.0893C6.58527 10.7638 6.58527 10.2362 6.9107 9.91074C7.23614 9.58531 7.76378 9.58531 8.08922 9.91074L9.16663 10.9882L11.9107 8.24408C12.2361 7.91864 12.7638 7.91864 13.0892 8.24408Z" fill="#6068DB"/>
</svg>
