<svg width="24" height="24" viewBox="0 0 24 24" fill="none" xmlns="http://www.w3.org/2000/svg">
<path fill-rule="evenodd" clip-rule="evenodd" d="M6 6C5.44772 6 5 6.44772 5 7C5 7.55228 5.44772 8 6 8H10C10.5523 8 11 8.44772 11 9V15C11 15.5523 10.5523 16 10 16H6C5.44772 16 5 16.4477 5 17C5 17.5523 5.44772 18 6 18H10C11.6569 18 13 16.6569 13 15V13H17C17.5523 13 18 12.5523 18 12C18 11.4477 17.5523 11 17 11H13V9C13 7.34315 11.6569 6 10 6H6Z" fill="#90ECF4"/>
<path fill-rule="evenodd" clip-rule="evenodd" d="M8 7C8 8.65685 6.65685 10 5 10C3.34315 10 2 8.65685 2 7C2 5.34315 3.34315 4 5 4C6.65685 4 8 5.34315 8 7ZM22 12C22 13.6569 20.6569 15 19 15C17.3431 15 16 13.6569 16 12C16 10.3431 17.3431 9 19 9C20.6569 9 22 10.3431 22 12ZM5 20C6.65685 20 8 18.6569 8 17C8 15.3431 6.65685 14 5 14C3.34315 14 2 15.3431 2 17C2 18.6569 3.34315 20 5 20Z" fill="#444BD3"/>
</svg>
