<svg width="44" height="40" viewBox="0 0 44 40" fill="none" xmlns="http://www.w3.org/2000/svg">
<path d="M21.1181 20H10.882C10.1791 20 9.57273 20 9.07331 20.0408C8.54618 20.0838 8.02189 20.1789 7.51738 20.436C6.76474 20.8195 6.15281 21.4314 5.76932 22.184C5.51226 22.6885 5.41717 23.2128 5.37411 23.74C5.3333 24.2394 5.33332 24.8457 5.33334 25.5486V31.7847C5.33332 32.4876 5.3333 33.094 5.37411 33.5934C5.41717 34.1205 5.51226 34.6448 5.76932 35.1493C6.15281 35.9019 6.76474 36.5139 7.51738 36.8974C8.02189 37.1544 8.54618 37.2495 9.07331 37.2926C9.57274 37.3334 10.1791 37.3334 10.8819 37.3333H21.118C21.8209 37.3334 22.4273 37.3334 22.9267 37.2926C23.4538 37.2495 23.9781 37.1544 24.4826 36.8974C25.2353 36.5139 25.8472 35.9019 26.2307 35.1493C26.4878 34.6448 26.5829 34.1205 26.6259 33.5934C26.6667 33.094 26.6667 32.4877 26.6667 31.7849V25.5486C26.6667 24.8458 26.6667 24.2394 26.6259 23.74C26.5829 23.2128 26.4878 22.6885 26.2307 22.184C25.8472 21.4314 25.2353 20.8195 24.4826 20.436C23.9781 20.1789 23.4538 20.0838 22.9267 20.0408C22.4273 20 21.8209 20 21.1181 20Z" fill="#90ECF4"/>
<path d="M14.6667 29.3333C14.6667 28.597 15.2636 28 16 28V28C16.7364 28 17.3333 28.597 17.3333 29.3333V30.6667C17.3333 31.403 16.7364 32 16 32V32C15.2636 32 14.6667 31.403 14.6667 30.6667V29.3333Z" fill="#444BD3"/>
<path fill-rule="evenodd" clip-rule="evenodd" d="M10.6667 16C10.6667 13.0545 13.0545 10.6667 16 10.6667C18.9455 10.6667 21.3333 13.0545 21.3333 16V20H18.6667V16C18.6667 14.5272 17.4727 13.3333 16 13.3333C14.5272 13.3333 13.3333 14.5272 13.3333 16V20H10.6667V16Z" fill="#444BD3"/>
<path d="M22.818 3.18198C24.5754 1.42462 27.4246 1.42462 29.182 3.18198L40.818 14.818C42.5754 16.5754 42.5754 19.4246 40.818 21.182L29.182 32.818C27.4246 34.5754 24.5754 34.5754 22.818 32.818L11.182 21.182C9.42462 19.4246 9.42462 16.5754 11.182 14.818L22.818 3.18198Z" fill="url(#paint0_linear_2_17)"/>
<defs>
<linearGradient id="paint0_linear_2_17" x1="26" y1="0" x2="26" y2="36" gradientUnits="userSpaceOnUse">
<stop stop-color="white" stop-opacity="0.12"/>
<stop offset="1" stop-color="white" stop-opacity="0"/>
</linearGradient>
</defs>
</svg>
