<svg width="48" height="48" viewBox="0 0 48 48" fill="none" xmlns="http://www.w3.org/2000/svg">
<path d="M26.818 3.18198C28.5754 1.42462 31.4246 1.42462 33.182 3.18198L44.818 14.818C46.5754 16.5754 46.5754 19.4246 44.818 21.182L33.182 32.818C31.4246 34.5754 28.5754 34.5754 26.818 32.818L15.182 21.182C13.4246 19.4246 13.4246 16.5754 15.182 14.818L26.818 3.18198Z" fill="url(#paint0_linear_121_868)"/>
<path fill-rule="evenodd" clip-rule="evenodd" d="M17.0572 33.0573C17.5778 32.5366 18.4221 32.5366 18.9428 33.0573L27.6094 41.7239C28.1301 42.2446 28.1301 43.0889 27.6094 43.6096C27.0887 44.1303 26.2445 44.1303 25.7238 43.6096L17.0572 34.9429C16.5365 34.4222 16.5365 33.578 17.0572 33.0573Z" fill="#90ECF4"/>
<path d="M13.3333 20C8.17868 20 4 24.1787 4 29.3333C4 34.488 8.17868 38.6667 13.3333 38.6667C18.488 38.6667 22.6667 34.488 22.6667 29.3333C22.6667 24.1787 18.488 20 13.3333 20Z" fill="#6068DB"/>
<defs>
<linearGradient id="paint0_linear_121_868" x1="30" y1="0" x2="30" y2="36" gradientUnits="userSpaceOnUse">
<stop stop-color="white" stop-opacity="0.12"/>
<stop offset="1" stop-color="white" stop-opacity="0"/>
</linearGradient>
</defs>
</svg>
