<svg width="48" height="48" viewBox="0 0 48 48" fill="none" xmlns="http://www.w3.org/2000/svg">
<path d="M26.818 3.18198C28.5754 1.42462 31.4246 1.42462 33.182 3.18198L44.818 14.818C46.5754 16.5754 46.5754 19.4246 44.818 21.182L33.182 32.818C31.4246 34.5754 28.5754 34.5754 26.818 32.818L15.182 21.182C13.4246 19.4246 13.4246 16.5754 15.182 14.818L26.818 3.18198Z" fill="url(#paint0_linear_121_886)"/>
<path d="M5.33331 44.0001C5.33331 43.2637 5.93027 42.6667 6.66665 42.6667H25.3333C26.0697 42.6667 26.6666 43.2637 26.6666 44.0001C26.6666 44.7365 26.0697 45.3334 25.3333 45.3334H6.66665C5.93027 45.3334 5.33331 44.7365 5.33331 44.0001Z" fill="#90ECF4"/>
<path d="M18.2782 19.8363C19.8403 18.2743 22.373 18.2743 23.9351 19.8364L25.4972 21.3985C27.0593 22.9606 27.0593 25.4932 25.4972 27.0553L24.9429 27.6096L17.7239 20.3907L18.2782 19.8363Z" fill="#6068DB"/>
<path d="M7.72928 30.396C7.54629 30.6143 7.41157 30.8697 7.33493 31.1454L5.39176 38.1358C5.08611 39.2353 6.09809 40.2473 7.19765 39.9417L14.188 37.9985C14.4638 37.9218 14.7191 37.7871 14.9374 37.6041L7.72928 30.396Z" fill="#6068DB"/>
<path d="M24.9429 27.6096L17.7239 20.3906L7.8477 30.2667C7.80627 30.3082 7.76678 30.3513 7.72931 30.396L14.9374 37.6041C14.9821 37.5666 15.0252 37.5271 15.0666 37.4857L24.9429 27.6096Z" fill="#90ECF4"/>
<defs>
<linearGradient id="paint0_linear_121_886" x1="30" y1="0" x2="30" y2="36" gradientUnits="userSpaceOnUse">
<stop stop-color="white" stop-opacity="0.12"/>
<stop offset="1" stop-color="white" stop-opacity="0"/>
</linearGradient>
</defs>
</svg>
