<svg width="48" height="48" viewBox="0 0 48 48" fill="none" xmlns="http://www.w3.org/2000/svg">
<path d="M26.818 3.18198C28.5754 1.42462 31.4246 1.42462 33.182 3.18198L44.818 14.818C46.5754 16.5754 46.5754 19.4246 44.818 21.182L33.182 32.818C31.4246 34.5754 28.5754 34.5754 26.818 32.818L15.182 21.182C13.4246 19.4246 13.4246 16.5754 15.182 14.818L26.818 3.18198Z" fill="url(#paint0_linear_121_829)"/>
<path d="M5.33329 21.3333C3.86053 21.3333 2.66663 22.5272 2.66663 23.9999V37.3333C2.66663 38.806 3.86053 39.9999 5.33329 39.9999H18.6666V23.9999C18.6666 22.5272 17.4727 21.3333 16 21.3333H5.33329Z" fill="#90ECF4"/>
<path d="M22.15 25.3333H18.6666V39.9999H26.6666C28.1394 39.9999 29.3333 38.806 29.3333 37.3333V32.118C29.3333 31.368 29.0175 30.6527 28.4633 30.1474L23.9467 26.0294C23.4555 25.5815 22.8147 25.3333 22.15 25.3333Z" fill="#6068DB"/>
<path fill-rule="evenodd" clip-rule="evenodd" d="M9.33329 42.6666C10.8061 42.6666 12 41.4727 12 39.9999C12 38.5272 10.8061 37.3333 9.33329 37.3333C7.86053 37.3333 6.66663 38.5272 6.66663 39.9999C6.66663 41.4727 7.86053 42.6666 9.33329 42.6666ZM25.8856 41.8855C26.3857 41.3854 26.6666 40.7072 26.6666 39.9999H24L21.3333 39.9999C21.3333 40.7072 21.6142 41.3854 22.1143 41.8855C22.6144 42.3856 23.2927 42.6666 24 42.6666C24.7072 42.6666 25.3855 42.3856 25.8856 41.8855Z" fill="#444BD3"/>
<defs>
<linearGradient id="paint0_linear_121_829" x1="30" y1="0" x2="30" y2="36" gradientUnits="userSpaceOnUse">
<stop stop-color="white" stop-opacity="0.12"/>
<stop offset="1" stop-color="white" stop-opacity="0"/>
</linearGradient>
</defs>
</svg>
