<svg width="24" height="24" viewBox="0 0 24 24" fill="none" xmlns="http://www.w3.org/2000/svg">
<path d="M5.5 7C4.67157 7 4 7.67157 4 8.5V18C4 19.6569 5.34315 21 7 21H17C18.6569 21 20 19.6569 20 18V8.5C20 7.67157 19.3284 7 18.5 7H5.5Z" fill="#90ECF4"/>
<path fill-rule="evenodd" clip-rule="evenodd" d="M14 21H10V17C10 15.8954 10.8954 15 12 15C13.1046 15 14 15.8954 14 17V21Z" fill="#444BD3"/>
<path d="M7 3.00031C8 2.99913 16 3.00171 17 3.00124C19 3.00031 21 4.50031 21 7.00031C21 8.50031 19.5 10.0003 18 10.0003C16 10.0003 15 8.00031 15 8.00031C15 8.00031 14.5 10.0007 12 10.0003C9.5 9.99996 9 8.00031 9 8.00031C9 8.00031 8 10 6 10C4.5 10 3 8.50031 3 7.00031C3 4.50031 5 3.00267 7 3.00031Z" fill="#444BD3"/>
</svg>
