<svg width="24" height="24" viewBox="0 0 24 24" fill="none" xmlns="http://www.w3.org/2000/svg">
<path d="M15.8385 9H8.16146C7.63433 8.99998 7.17954 8.99997 6.80497 9.03057C6.40963 9.06287 6.01641 9.13419 5.63803 9.32698C5.07354 9.6146 4.6146 10.0735 4.32698 10.638C4.13419 11.0164 4.06287 11.4096 4.03057 11.805C3.99997 12.1795 3.99998 12.6343 4 13.1614V17.8385C3.99998 18.3657 3.99997 18.8205 4.03057 19.195C4.06287 19.5904 4.13419 19.9836 4.32698 20.362C4.6146 20.9265 5.07354 21.3854 5.63803 21.673C6.01641 21.8658 6.40963 21.9371 6.80497 21.9694C7.17954 22 7.6343 22 8.16145 22H15.8385C16.3657 22 16.8205 22 17.195 21.9694C17.5904 21.9371 17.9836 21.8658 18.362 21.673C18.9265 21.3854 19.3854 20.9265 19.673 20.362C19.8658 19.9836 19.9371 19.5904 19.9694 19.195C20 18.8205 20 18.3658 20 17.8386V13.1615C20 12.6344 20 12.1795 19.9694 11.805C19.9371 11.4096 19.8658 11.0164 19.673 10.638C19.3854 10.0735 18.9265 9.6146 18.362 9.32698C17.9836 9.13419 17.5904 9.06287 17.195 9.03057C16.8205 8.99997 16.3657 8.99998 15.8385 9Z" fill="#90ECF4"/>
<path d="M11 16C11 15.4477 11.4477 15 12 15C12.5523 15 13 15.4477 13 16V17C13 17.5523 12.5523 18 12 18C11.4477 18 11 17.5523 11 17V16Z" fill="#444BD3"/>
<path fill-rule="evenodd" clip-rule="evenodd" d="M8 6C8 3.79086 9.79086 2 12 2C14.2091 2 16 3.79086 16 6V9H14V6C14 4.89543 13.1046 4 12 4C10.8954 4 10 4.89543 10 6V9H8V6Z" fill="#444BD3"/>
</svg>
